<svg id="svg" xmlns="http://www.w3.org/2000/svg" xmlns:xlink="http://www.w3.org/1999/xlink" width="400" height="283.44370860927154" viewBox="0, 0, 400,283.44370860927154"><g id="svgg"><path id="path0" d="M0.000 8.500 L 0.000 16.833 200.000 16.833 L 400.000 16.833 400.000 8.500 L 400.000 0.167 200.000 0.167 L 0.000 0.167 0.000 8.500 M200.333 141.639 C 200.333 224.445,200.371 241.611,200.554 241.611 C 200.675 241.611,223.269 219.163,250.762 191.725 L 300.750 141.840 250.667 91.755 C 223.121 64.208,200.527 41.669,200.458 41.668 C 200.390 41.667,200.333 86.654,200.333 141.639 M154.448 88.659 C 135.949 107.180,120.743 122.333,120.657 122.333 C 120.570 122.333,120.500 122.408,120.500 122.499 C 120.500 122.695,115.668 127.500,115.470 127.500 C 115.395 127.500,115.333 127.574,115.333 127.665 C 115.333 127.862,110.501 132.667,110.303 132.667 C 110.228 132.667,110.167 132.741,110.167 132.832 C 110.167 133.029,105.335 137.833,105.137 137.833 C 105.062 137.833,105.000 137.911,105.000 138.007 C 105.000 138.102,104.175 138.982,103.167 139.961 C 102.158 140.941,101.333 141.783,101.333 141.832 C 101.333 141.962,187.805 228.407,188.001 228.472 C 188.110 228.509,188.167 225.501,188.167 219.722 L 188.167 210.916 153.667 176.417 C 134.692 157.442,119.167 141.867,119.167 141.805 C 119.167 141.744,134.692 126.172,153.668 107.201 L 188.170 72.708 188.126 63.846 L 188.083 54.985 154.448 88.659 M214.301 73.365 C 214.421 73.531,214.623 73.667,214.750 73.667 C 214.878 73.667,215.080 73.873,215.200 74.125 C 215.320 74.377,215.574 74.652,215.765 74.736 C 215.955 74.820,216.180 75.045,216.264 75.236 C 216.348 75.427,216.573 75.652,216.764 75.736 C 216.955 75.820,217.180 76.045,217.264 76.236 C 217.348 76.427,217.573 76.652,217.764 76.736 C 217.955 76.820,218.180 77.044,218.264 77.233 C 218.348 77.422,218.601 77.668,218.826 77.780 C 219.052 77.891,219.294 78.138,219.364 78.328 C 219.435 78.519,219.648 78.732,219.838 78.803 C 220.029 78.873,220.276 79.115,220.387 79.340 C 220.498 79.566,220.744 79.819,220.934 79.903 C 221.123 79.987,221.347 80.212,221.431 80.403 C 221.515 80.594,221.740 80.819,221.931 80.903 C 222.122 80.987,222.347 81.212,222.431 81.403 C 222.515 81.594,222.740 81.819,222.931 81.903 C 223.122 81.987,223.347 82.210,223.431 82.400 C 223.515 82.589,223.768 82.835,223.993 82.946 C 224.218 83.058,224.460 83.304,224.531 83.495 C 224.601 83.685,224.815 83.899,225.005 83.969 C 225.196 84.040,225.442 84.282,225.554 84.507 C 225.665 84.732,225.911 84.985,226.100 85.069 C 226.290 85.153,226.513 85.378,226.597 85.569 C 226.681 85.760,226.906 85.985,227.097 86.069 C 227.288 86.153,227.513 86.378,227.597 86.569 C 227.681 86.760,227.906 86.985,228.096 87.069 C 228.286 87.152,228.564 87.433,228.713 87.694 C 228.862 87.954,229.102 88.167,229.246 88.167 C 229.390 88.167,229.580 88.356,229.668 88.588 C 229.756 88.819,229.984 89.066,230.173 89.136 C 230.363 89.207,230.609 89.448,230.720 89.674 C 230.832 89.899,231.078 90.152,231.267 90.236 C 231.456 90.320,231.680 90.545,231.764 90.736 C 231.848 90.927,232.073 91.152,232.264 91.236 C 232.455 91.320,232.680 91.545,232.764 91.736 C 232.848 91.927,233.072 92.152,233.262 92.235 C 233.453 92.319,233.730 92.600,233.880 92.860 C 234.029 93.120,234.269 93.333,234.413 93.333 C 234.557 93.333,234.747 93.523,234.835 93.754 C 234.923 93.986,235.150 94.233,235.340 94.303 C 235.530 94.373,235.776 94.615,235.887 94.840 C 235.998 95.066,236.244 95.319,236.434 95.403 C 236.623 95.487,236.847 95.712,236.931 95.903 C 237.015 96.094,237.240 96.319,237.431 96.403 C 237.622 96.487,237.847 96.712,237.931 96.903 C 238.015 97.094,238.239 97.318,238.429 97.402 C 238.619 97.485,238.897 97.767,239.046 98.027 C 239.196 98.287,239.436 98.500,239.580 98.500 C 239.724 98.500,239.914 98.690,240.002 98.921 C 240.090 99.153,240.317 99.400,240.507 99.470 C 240.696 99.540,240.942 99.782,241.054 100.007 C 241.165 100.232,241.411 100.485,241.600 100.569 C 241.790 100.653,242.013 100.878,242.097 101.069 C 242.181 101.260,242.406 101.485,242.597 101.569 C 242.788 101.653,243.013 101.878,243.097 102.069 C 243.181 102.260,243.406 102.485,243.596 102.569 C 243.786 102.652,244.064 102.933,244.213 103.194 C 244.362 103.454,244.602 103.667,244.746 103.667 C 244.890 103.667,245.080 103.856,245.168 104.086 C 245.256 104.317,245.516 104.578,245.747 104.666 C 245.978 104.753,246.167 104.943,246.167 105.087 C 246.167 105.231,246.380 105.471,246.640 105.620 C 246.900 105.770,247.181 106.047,247.265 106.238 C 247.348 106.428,247.573 106.652,247.764 106.736 C 247.955 106.820,248.180 107.045,248.264 107.236 C 248.348 107.427,248.573 107.652,248.764 107.736 C 248.955 107.820,249.180 108.044,249.264 108.233 C 249.348 108.422,249.601 108.668,249.826 108.780 C 250.052 108.891,250.293 109.137,250.364 109.327 C 250.434 109.516,250.681 109.744,250.912 109.832 C 251.144 109.920,251.333 110.110,251.333 110.254 C 251.333 110.398,251.546 110.638,251.806 110.787 C 252.067 110.936,252.348 111.214,252.431 111.404 C 252.515 111.594,252.740 111.819,252.931 111.903 C 253.122 111.987,253.347 112.212,253.431 112.403 C 253.515 112.594,253.739 112.818,253.929 112.902 C 254.119 112.985,254.397 113.267,254.546 113.527 C 254.696 113.787,254.936 114.000,255.080 114.000 C 255.224 114.000,255.413 114.189,255.501 114.420 C 255.589 114.650,255.850 114.911,256.080 114.999 C 256.311 115.087,256.500 115.276,256.500 115.420 C 256.500 115.564,256.713 115.804,256.973 115.954 C 257.233 116.103,257.515 116.381,257.598 116.571 C 257.682 116.761,257.906 116.985,258.097 117.069 C 258.288 117.153,258.513 117.378,258.597 117.569 C 258.681 117.760,258.906 117.985,259.096 118.069 C 259.286 118.152,259.564 118.433,259.713 118.694 C 259.862 118.954,260.102 119.167,260.246 119.167 C 260.390 119.167,260.580 119.356,260.668 119.586 C 260.756 119.817,261.016 120.078,261.247 120.166 C 261.478 120.253,261.667 120.443,261.667 120.587 C 261.667 120.731,261.880 120.971,262.140 121.120 C 262.400 121.270,262.681 121.547,262.765 121.738 C 262.848 121.928,263.073 122.152,263.264 122.236 C 263.455 122.320,263.680 122.545,263.764 122.736 C 263.848 122.927,264.072 123.152,264.262 123.235 C 264.453 123.319,264.730 123.600,264.880 123.860 C 265.029 124.120,265.269 124.333,265.413 124.333 C 265.557 124.333,265.747 124.522,265.834 124.753 C 265.922 124.984,266.183 125.244,266.414 125.332 C 266.644 125.420,266.833 125.610,266.833 125.754 C 266.833 125.898,267.046 126.138,267.306 126.287 C 267.567 126.436,267.848 126.714,267.931 126.904 C 268.015 127.094,268.240 127.319,268.431 127.403 C 268.622 127.487,268.847 127.712,268.931 127.903 C 269.015 128.094,269.239 128.318,269.429 128.402 C 269.619 128.485,269.897 128.767,270.046 129.027 C 270.196 129.287,270.436 129.500,270.580 129.500 C 270.724 129.500,270.913 129.689,271.001 129.920 C 271.089 130.150,271.350 130.411,271.580 130.499 C 271.811 130.587,272.000 130.776,272.000 130.920 C 272.000 131.064,272.213 131.304,272.473 131.454 C 272.733 131.603,273.015 131.881,273.098 132.071 C 273.182 132.261,273.406 132.485,273.597 132.569 C 273.788 132.653,274.013 132.878,274.097 133.069 C 274.181 133.260,274.406 133.485,274.596 133.569 C 274.786 133.652,275.064 133.933,275.213 134.194 C 275.362 134.454,275.602 134.667,275.746 134.667 C 275.890 134.667,276.080 134.856,276.168 135.086 C 276.256 135.317,276.516 135.578,276.747 135.666 C 276.978 135.753,277.167 135.943,277.167 136.087 C 277.167 136.231,277.380 136.471,277.640 136.620 C 277.900 136.770,278.181 137.047,278.265 137.238 C 278.348 137.428,278.585 137.657,278.792 137.748 C 278.998 137.838,279.167 137.969,279.167 138.038 C 279.167 138.246,279.728 138.833,279.927 138.833 C 280.029 138.833,280.199 139.022,280.305 139.253 C 280.410 139.484,280.684 139.745,280.915 139.833 C 281.145 139.920,281.333 140.069,281.333 140.162 C 281.333 140.256,281.633 140.642,282.000 141.020 C 282.367 141.398,282.667 141.758,282.667 141.819 C 282.667 141.897,214.778 209.859,213.742 210.819 C 213.700 210.858,213.667 179.822,213.667 141.851 C 213.667 86.666,213.708 72.839,213.875 72.938 C 213.990 73.007,214.181 73.199,214.301 73.365 M0.000 274.833 L 0.000 283.167 200.000 283.167 L 400.000 283.167 400.000 274.833 L 400.000 266.500 200.000 266.500 L 0.000 266.500 0.000 274.833 " stroke="none" fill="#c3343c" fill-rule="evenodd"></path><path id="path1" d="M99.958 0.125 C 154.981 0.148,245.019 0.148,300.042 0.125 C 355.065 0.102,310.046 0.083,200.000 0.083 C 89.954 0.083,44.935 0.102,99.958 0.125 M141.250 82.833 L 82.250 141.833 141.250 200.833 C 173.700 233.283,200.300 259.815,200.362 259.792 C 200.424 259.769,227.041 233.211,259.512 200.775 L 318.550 141.800 259.567 82.817 C 227.126 50.376,200.508 23.833,200.417 23.833 C 200.325 23.833,173.700 50.383,141.250 82.833 M250.667 91.755 L 300.750 141.840 250.762 191.725 C 223.269 219.163,200.675 241.611,200.554 241.611 C 200.371 241.611,200.333 224.445,200.333 141.639 C 200.333 86.654,200.390 41.667,200.458 41.668 C 200.527 41.669,223.121 64.208,250.667 91.755 M153.668 107.201 C 134.692 126.172,119.167 141.744,119.167 141.805 C 119.167 141.867,134.692 157.442,153.667 176.417 L 188.167 210.916 188.167 219.722 C 188.167 225.501,188.110 228.509,188.001 228.472 C 187.805 228.407,101.333 141.962,101.333 141.832 C 101.333 141.783,102.158 140.941,103.167 139.961 C 104.175 138.982,105.000 138.102,105.000 138.007 C 105.000 137.911,105.062 137.833,105.137 137.833 C 105.335 137.833,110.167 133.029,110.167 132.832 C 110.167 132.741,110.228 132.667,110.303 132.667 C 110.501 132.667,115.333 127.862,115.333 127.665 C 115.333 127.574,115.395 127.500,115.470 127.500 C 115.668 127.500,120.500 122.695,120.500 122.499 C 120.500 122.408,120.570 122.333,120.657 122.333 C 120.743 122.333,135.949 107.180,154.448 88.659 L 188.083 54.985 188.126 63.846 L 188.170 72.708 153.668 107.201 M213.667 141.851 C 213.667 179.822,213.700 210.858,213.742 210.819 C 214.778 209.859,282.667 141.897,282.667 141.819 C 282.667 141.758,282.367 141.398,282.000 141.020 C 281.633 140.642,281.333 140.256,281.333 140.162 C 281.333 140.069,281.145 139.920,280.915 139.833 C 280.684 139.745,280.410 139.484,280.305 139.253 C 280.199 139.022,280.029 138.833,279.927 138.833 C 279.728 138.833,279.167 138.246,279.167 138.038 C 279.167 137.969,278.998 137.838,278.792 137.748 C 278.585 137.657,278.348 137.428,278.265 137.238 C 278.181 137.047,277.900 136.770,277.640 136.620 C 277.380 136.471,277.167 136.231,277.167 136.087 C 277.167 135.943,276.978 135.753,276.747 135.666 C 276.516 135.578,276.256 135.317,276.168 135.086 C 276.080 134.856,275.890 134.667,275.746 134.667 C 275.602 134.667,275.362 134.454,275.213 134.194 C 275.064 133.933,274.786 133.652,274.596 133.569 C 274.406 133.485,274.181 133.260,274.097 133.069 C 274.013 132.878,273.788 132.653,273.597 132.569 C 273.406 132.485,273.182 132.261,273.098 132.071 C 273.015 131.881,272.733 131.603,272.473 131.454 C 272.213 131.304,272.000 131.064,272.000 130.920 C 272.000 130.776,271.811 130.587,271.580 130.499 C 271.350 130.411,271.089 130.150,271.001 129.920 C 270.913 129.689,270.724 129.500,270.580 129.500 C 270.436 129.500,270.196 129.287,270.046 129.027 C 269.897 128.767,269.619 128.485,269.429 128.402 C 269.239 128.318,269.015 128.094,268.931 127.903 C 268.847 127.712,268.622 127.487,268.431 127.403 C 268.240 127.319,268.015 127.094,267.931 126.904 C 267.848 126.714,267.567 126.436,267.306 126.287 C 267.046 126.138,266.833 125.898,266.833 125.754 C 266.833 125.610,266.644 125.420,266.414 125.332 C 266.183 125.244,265.922 124.984,265.834 124.753 C 265.747 124.522,265.557 124.333,265.413 124.333 C 265.269 124.333,265.029 124.120,264.880 123.860 C 264.730 123.600,264.453 123.319,264.262 123.235 C 264.072 123.152,263.848 122.927,263.764 122.736 C 263.680 122.545,263.455 122.320,263.264 122.236 C 263.073 122.152,262.848 121.928,262.765 121.738 C 262.681 121.547,262.400 121.270,262.140 121.120 C 261.880 120.971,261.667 120.731,261.667 120.587 C 261.667 120.443,261.478 120.253,261.247 120.166 C 261.016 120.078,260.756 119.817,260.668 119.586 C 260.580 119.356,260.390 119.167,260.246 119.167 C 260.102 119.167,259.862 118.954,259.713 118.694 C 259.564 118.433,259.286 118.152,259.096 118.069 C 258.906 117.985,258.681 117.760,258.597 117.569 C 258.513 117.378,258.288 117.153,258.097 117.069 C 257.906 116.985,257.682 116.761,257.598 116.571 C 257.515 116.381,257.233 116.103,256.973 115.954 C 256.713 115.804,256.500 115.564,256.500 115.420 C 256.500 115.276,256.311 115.087,256.080 114.999 C 255.850 114.911,255.589 114.650,255.501 114.420 C 255.413 114.189,255.224 114.000,255.080 114.000 C 254.936 114.000,254.696 113.787,254.546 113.527 C 254.397 113.267,254.119 112.985,253.929 112.902 C 253.739 112.818,253.515 112.594,253.431 112.403 C 253.347 112.212,253.122 111.987,252.931 111.903 C 252.740 111.819,252.515 111.594,252.431 111.404 C 252.348 111.214,252.067 110.936,251.806 110.787 C 251.546 110.638,251.333 110.398,251.333 110.254 C 251.333 110.110,251.144 109.920,250.912 109.832 C 250.681 109.744,250.434 109.516,250.364 109.327 C 250.293 109.137,250.052 108.891,249.826 108.780 C 249.601 108.668,249.348 108.422,249.264 108.233 C 249.180 108.044,248.955 107.820,248.764 107.736 C 248.573 107.652,248.348 107.427,248.264 107.236 C 248.180 107.045,247.955 106.820,247.764 106.736 C 247.573 106.652,247.348 106.428,247.265 106.238 C 247.181 106.047,246.900 105.770,246.640 105.620 C 246.380 105.471,246.167 105.231,246.167 105.087 C 246.167 104.943,245.978 104.753,245.747 104.666 C 245.516 104.578,245.256 104.317,245.168 104.086 C 245.080 103.856,244.890 103.667,244.746 103.667 C 244.602 103.667,244.362 103.454,244.213 103.194 C 244.064 102.933,243.786 102.652,243.596 102.569 C 243.406 102.485,243.181 102.260,243.097 102.069 C 243.013 101.878,242.788 101.653,242.597 101.569 C 242.406 101.485,242.181 101.260,242.097 101.069 C 242.013 100.878,241.790 100.653,241.600 100.569 C 241.411 100.485,241.165 100.232,241.054 100.007 C 240.942 99.782,240.696 99.540,240.507 99.470 C 240.317 99.400,240.090 99.153,240.002 98.921 C 239.914 98.690,239.724 98.500,239.580 98.500 C 239.436 98.500,239.196 98.287,239.046 98.027 C 238.897 97.767,238.619 97.485,238.429 97.402 C 238.239 97.318,238.015 97.094,237.931 96.903 C 237.847 96.712,237.622 96.487,237.431 96.403 C 237.240 96.319,237.015 96.094,236.931 95.903 C 236.847 95.712,236.623 95.487,236.434 95.403 C 236.244 95.319,235.998 95.066,235.887 94.840 C 235.776 94.615,235.530 94.373,235.340 94.303 C 235.150 94.233,234.923 93.986,234.835 93.754 C 234.747 93.523,234.557 93.333,234.413 93.333 C 234.269 93.333,234.029 93.120,233.880 92.860 C 233.730 92.600,233.453 92.319,233.262 92.235 C 233.072 92.152,232.848 91.927,232.764 91.736 C 232.680 91.545,232.455 91.320,232.264 91.236 C 232.073 91.152,231.848 90.927,231.764 90.736 C 231.680 90.545,231.456 90.320,231.267 90.236 C 231.078 90.152,230.832 89.899,230.720 89.674 C 230.609 89.448,230.363 89.207,230.173 89.136 C 229.984 89.066,229.756 88.819,229.668 88.588 C 229.580 88.356,229.390 88.167,229.246 88.167 C 229.102 88.167,228.862 87.954,228.713 87.694 C 228.564 87.433,228.286 87.152,228.096 87.069 C 227.906 86.985,227.681 86.760,227.597 86.569 C 227.513 86.378,227.288 86.153,227.097 86.069 C 226.906 85.985,226.681 85.760,226.597 85.569 C 226.513 85.378,226.290 85.153,226.100 85.069 C 225.911 84.985,225.665 84.732,225.554 84.507 C 225.442 84.282,225.196 84.040,225.005 83.969 C 224.815 83.899,224.601 83.685,224.531 83.495 C 224.460 83.304,224.218 83.058,223.993 82.946 C 223.768 82.835,223.515 82.589,223.431 82.400 C 223.347 82.210,223.122 81.987,222.931 81.903 C 222.740 81.819,222.515 81.594,222.431 81.403 C 222.347 81.212,222.122 80.987,221.931 80.903 C 221.740 80.819,221.515 80.594,221.431 80.403 C 221.347 80.212,221.123 79.987,220.934 79.903 C 220.744 79.819,220.498 79.566,220.387 79.340 C 220.276 79.115,220.029 78.873,219.838 78.803 C 219.648 78.732,219.435 78.519,219.364 78.328 C 219.294 78.138,219.052 77.891,218.826 77.780 C 218.601 77.668,218.348 77.422,218.264 77.233 C 218.180 77.044,217.955 76.820,217.764 76.736 C 217.573 76.652,217.348 76.427,217.264 76.236 C 217.180 76.045,216.955 75.820,216.764 75.736 C 216.573 75.652,216.348 75.427,216.264 75.236 C 216.180 75.045,215.955 74.820,215.765 74.736 C 215.574 74.652,215.320 74.377,215.200 74.125 C 215.080 73.873,214.878 73.667,214.750 73.667 C 214.623 73.667,214.421 73.531,214.301 73.365 C 214.181 73.199,213.990 73.007,213.875 72.938 C 213.708 72.839,213.667 86.666,213.667 141.851 M99.958 283.292 C 154.981 283.315,245.019 283.315,300.042 283.292 C 355.065 283.269,310.046 283.250,200.000 283.250 C 89.954 283.250,44.935 283.269,99.958 283.292 " stroke="none" fill="#fbfbfb" fill-rule="evenodd"></path><path id="path2" d="M0.000 141.667 L 0.000 266.333 200.000 266.333 L 400.000 266.333 400.000 141.667 L 400.000 17.000 200.000 17.000 L 0.000 17.000 0.000 141.667 M225.240 48.324 C 238.801 61.885,249.976 72.935,250.073 72.880 C 250.171 72.825,250.193 72.843,250.123 72.920 C 249.950 73.110,250.837 74.015,251.067 73.884 C 251.168 73.827,251.191 73.844,251.119 73.923 C 250.947 74.113,255.008 78.179,255.239 78.048 C 255.337 77.992,255.359 78.010,255.289 78.087 C 255.117 78.277,256.004 79.182,256.234 79.051 C 256.334 78.993,256.358 79.011,256.286 79.090 C 256.113 79.279,260.175 83.345,260.405 83.214 C 260.503 83.159,260.526 83.176,260.456 83.253 C 260.283 83.443,261.170 84.348,261.401 84.217 C 261.501 84.160,261.525 84.178,261.453 84.257 C 261.280 84.446,265.341 88.512,265.572 88.381 C 265.670 88.325,265.693 88.343,265.623 88.420 C 265.450 88.610,266.337 89.515,266.567 89.384 C 266.668 89.327,266.691 89.344,266.619 89.423 C 266.447 89.613,270.508 93.679,270.739 93.548 C 270.837 93.492,270.858 93.511,270.786 93.590 C 270.613 93.780,275.675 98.845,275.906 98.714 C 276.003 98.659,276.024 98.678,275.952 98.757 C 275.780 98.946,280.842 104.012,281.072 103.881 C 281.170 103.825,281.191 103.845,281.119 103.924 C 280.947 104.113,286.008 109.179,286.239 109.048 C 286.337 108.992,286.359 109.010,286.289 109.087 C 286.117 109.277,287.004 110.182,287.234 110.051 C 287.334 109.993,287.358 110.011,287.286 110.090 C 287.113 110.279,291.175 114.345,291.405 114.214 C 291.503 114.159,291.526 114.176,291.456 114.253 C 291.283 114.443,292.170 115.348,292.401 115.217 C 292.501 115.160,292.525 115.178,292.453 115.257 C 292.280 115.446,296.341 119.512,296.572 119.381 C 296.670 119.325,296.693 119.343,296.623 119.420 C 296.450 119.610,297.337 120.515,297.567 120.384 C 297.668 120.327,297.691 120.344,297.619 120.423 C 297.447 120.613,301.508 124.679,301.739 124.548 C 301.837 124.492,301.859 124.510,301.789 124.587 C 301.617 124.777,302.504 125.682,302.734 125.551 C 302.834 125.493,302.858 125.511,302.786 125.590 C 302.613 125.779,306.675 129.845,306.905 129.714 C 307.003 129.659,307.024 129.678,306.952 129.757 C 306.780 129.946,311.842 135.012,312.072 134.881 C 312.170 134.825,312.191 134.845,312.119 134.924 C 311.947 135.113,317.008 140.179,317.239 140.048 C 317.337 139.992,317.359 140.010,317.289 140.087 C 317.117 140.277,318.004 141.182,318.234 141.051 C 318.334 140.993,318.360 141.009,318.291 141.085 C 318.222 141.161,318.286 141.356,318.433 141.518 C 318.678 141.789,318.672 141.842,318.350 142.188 C 318.157 142.394,317.999 142.605,317.999 142.656 C 317.998 142.708,317.737 142.928,317.418 143.145 C 317.099 143.362,316.867 143.587,316.902 143.645 C 316.968 143.755,316.573 144.179,316.416 144.166 C 316.226 144.151,315.526 144.970,315.635 145.080 C 315.698 145.143,315.640 145.169,315.506 145.139 C 315.372 145.108,315.185 145.252,315.092 145.458 C 314.998 145.665,314.832 145.833,314.724 145.833 C 314.616 145.833,314.363 146.100,314.161 146.425 C 313.960 146.751,313.755 146.977,313.706 146.928 C 313.609 146.831,312.834 147.672,312.834 147.875 C 312.833 147.944,312.762 148.000,312.675 148.000 C 312.588 148.000,312.315 148.188,312.068 148.417 C 311.820 148.646,311.669 148.833,311.732 148.833 C 311.795 148.833,311.750 148.939,311.632 149.067 C 311.513 149.196,311.376 149.290,311.327 149.276 C 311.155 149.227,310.354 150.132,310.468 150.246 C 310.532 150.309,310.474 150.336,310.339 150.306 C 310.205 150.275,310.019 150.419,309.925 150.625 C 309.831 150.831,309.666 151.000,309.557 151.000 C 309.449 151.000,309.198 151.263,308.999 151.584 C 308.801 151.906,308.588 152.141,308.527 152.108 C 308.377 152.025,307.510 152.955,307.628 153.073 C 307.680 153.124,307.635 153.167,307.528 153.167 C 307.290 153.167,306.567 153.868,306.625 154.042 C 306.648 154.110,306.550 154.167,306.407 154.167 C 306.253 154.167,306.195 154.245,306.266 154.359 C 306.334 154.469,306.312 154.507,306.216 154.447 C 306.010 154.320,305.145 155.251,305.304 155.428 C 305.366 155.497,305.336 155.508,305.238 155.452 C 305.140 155.396,304.934 155.497,304.781 155.675 C 304.628 155.854,304.545 156.000,304.597 156.000 C 304.648 156.000,304.578 156.113,304.440 156.250 C 304.303 156.388,304.115 156.500,304.023 156.500 C 303.931 156.500,303.807 156.655,303.747 156.843 C 303.687 157.032,303.457 157.269,303.236 157.370 C 303.014 157.471,302.833 157.607,302.833 157.672 C 302.833 157.856,300.016 160.667,299.831 160.667 C 299.741 160.667,299.667 160.730,299.667 160.808 C 299.667 161.015,299.071 161.667,298.882 161.667 C 298.793 161.667,298.635 161.854,298.530 162.083 C 298.426 162.313,298.275 162.500,298.195 162.500 C 298.114 162.500,297.846 162.687,297.599 162.917 C 297.352 163.146,297.189 163.333,297.237 163.333 C 297.286 163.333,296.833 163.821,296.231 164.417 C 295.630 165.012,295.065 165.500,294.976 165.500 C 294.886 165.500,294.860 165.575,294.917 165.667 C 294.973 165.758,294.903 165.833,294.760 165.833 C 294.617 165.833,294.500 165.897,294.500 165.974 C 294.500 166.181,293.905 166.833,293.716 166.833 C 293.626 166.833,293.468 167.021,293.364 167.250 C 293.259 167.479,293.108 167.667,293.028 167.667 C 292.948 167.667,292.680 167.854,292.432 168.083 C 292.185 168.313,292.022 168.500,292.071 168.500 C 292.119 168.500,291.666 168.988,291.065 169.583 C 290.463 170.179,289.898 170.667,289.809 170.667 C 289.720 170.667,289.693 170.742,289.750 170.833 C 289.807 170.925,289.768 171.000,289.665 171.000 C 289.561 171.000,289.364 171.112,289.226 171.250 C 289.089 171.387,289.024 171.500,289.083 171.500 C 289.142 171.500,289.078 171.612,288.940 171.750 C 288.803 171.887,288.615 172.000,288.523 172.000 C 288.431 172.000,288.307 172.155,288.247 172.343 C 288.187 172.532,287.957 172.769,287.736 172.870 C 287.514 172.971,287.333 173.115,287.333 173.191 C 287.333 173.336,285.845 174.833,285.701 174.833 C 285.499 174.833,284.531 175.976,284.635 176.092 C 284.698 176.162,284.670 176.174,284.571 176.119 C 284.473 176.063,284.268 176.163,284.115 176.342 C 283.962 176.521,283.876 176.667,283.925 176.667 C 283.973 176.667,283.916 176.771,283.798 176.899 C 283.680 177.027,283.531 177.100,283.467 177.061 C 283.403 177.022,283.273 177.135,283.178 177.312 C 282.949 177.741,280.420 180.275,279.994 180.503 C 279.809 180.602,279.701 180.755,279.755 180.842 C 279.809 180.929,279.763 181.000,279.654 181.000 C 279.544 181.000,279.281 181.188,279.069 181.417 C 278.856 181.646,278.722 181.833,278.770 181.833 C 278.818 181.833,278.745 181.946,278.607 182.083 C 278.470 182.221,278.282 182.333,278.190 182.333 C 278.098 182.333,277.973 182.488,277.913 182.677 C 277.853 182.866,277.623 183.103,277.402 183.204 C 277.181 183.304,277.000 183.436,277.000 183.496 C 277.000 183.648,274.954 185.761,274.750 185.819 C 274.658 185.845,274.602 185.934,274.625 186.017 C 274.648 186.099,274.568 186.167,274.447 186.167 C 274.326 186.167,274.064 186.354,273.864 186.583 C 273.665 186.813,273.545 187.000,273.596 187.000 C 273.648 187.000,273.578 187.112,273.440 187.250 C 273.303 187.387,273.144 187.500,273.088 187.500 C 273.032 187.500,272.820 187.661,272.618 187.858 C 272.416 188.055,272.362 188.162,272.500 188.095 C 272.637 188.029,272.600 188.091,272.417 188.232 C 271.955 188.588,271.825 188.714,271.224 189.387 C 270.935 189.711,270.654 189.932,270.599 189.877 C 270.545 189.822,270.500 189.903,270.500 190.056 C 270.500 190.208,270.383 190.333,270.240 190.333 C 270.097 190.333,270.020 190.397,270.068 190.476 C 270.117 190.554,269.967 190.704,269.735 190.810 C 269.504 190.915,269.361 191.076,269.417 191.167 C 269.474 191.259,269.421 191.333,269.301 191.333 C 269.043 191.333,268.167 192.223,268.167 192.485 C 268.167 192.585,268.089 192.667,267.993 192.667 C 267.898 192.667,267.654 192.828,267.451 193.025 C 267.249 193.221,267.196 193.328,267.333 193.262 C 267.471 193.196,267.441 193.257,267.268 193.398 C 267.095 193.539,266.904 193.676,266.845 193.702 C 266.786 193.729,266.566 193.995,266.356 194.294 C 266.146 194.593,265.905 194.794,265.821 194.742 C 265.736 194.690,265.667 194.768,265.667 194.917 C 265.667 195.065,265.592 195.140,265.500 195.083 C 265.408 195.027,265.333 195.097,265.333 195.240 C 265.333 195.383,265.216 195.500,265.073 195.500 C 264.931 195.500,264.848 195.556,264.889 195.625 C 264.988 195.788,264.566 196.178,264.434 196.046 C 264.379 195.990,264.333 196.037,264.333 196.151 C 264.333 196.361,263.852 196.920,263.679 196.912 C 263.488 196.904,263.000 197.413,263.000 197.620 C 263.000 197.738,262.900 197.833,262.777 197.833 C 262.654 197.833,262.471 198.014,262.370 198.236 C 262.269 198.457,262.032 198.687,261.843 198.747 C 261.655 198.807,261.500 198.910,261.500 198.977 C 261.500 199.182,260.367 200.311,260.264 200.208 C 260.210 200.155,260.167 200.236,260.167 200.389 C 260.167 200.542,260.052 200.667,259.911 200.667 C 259.771 200.667,259.594 200.835,259.517 201.042 C 259.441 201.248,259.312 201.405,259.231 201.392 C 259.150 201.378,259.102 201.434,259.125 201.517 C 259.148 201.599,259.073 201.667,258.958 201.667 C 258.707 201.667,257.833 202.561,257.833 202.818 C 257.833 202.918,257.733 203.000,257.610 203.000 C 257.487 203.000,257.304 203.181,257.204 203.402 C 257.103 203.623,256.866 203.853,256.677 203.913 C 256.488 203.973,256.333 204.077,256.333 204.143 C 256.333 204.348,255.200 205.478,255.097 205.375 C 255.044 205.321,255.000 205.403,255.000 205.556 C 255.000 205.708,254.885 205.833,254.745 205.833 C 254.604 205.833,254.427 206.002,254.351 206.208 C 254.274 206.415,254.145 206.572,254.064 206.558 C 253.983 206.545,253.935 206.601,253.958 206.683 C 253.981 206.766,253.906 206.833,253.791 206.833 C 253.540 206.833,252.667 207.728,252.667 207.985 C 252.667 208.085,252.566 208.167,252.443 208.167 C 252.321 208.167,252.138 208.348,252.037 208.569 C 251.936 208.790,251.699 209.020,251.510 209.080 C 251.321 209.140,251.167 209.243,251.167 209.310 C 251.167 209.515,250.033 210.644,249.930 210.541 C 249.877 210.488,249.833 210.569,249.833 210.722 C 249.833 210.875,249.718 211.000,249.578 211.000 C 249.438 211.000,249.260 211.169,249.184 211.375 C 249.108 211.581,248.979 211.739,248.898 211.725 C 248.816 211.711,248.769 211.768,248.792 211.850 C 248.815 211.933,248.734 212.000,248.613 212.000 C 248.492 212.000,248.230 212.188,248.031 212.417 C 247.832 212.646,247.711 212.833,247.763 212.833 C 247.815 212.833,247.745 212.946,247.607 213.083 C 247.470 213.221,247.289 213.333,247.205 213.333 C 247.122 213.333,246.971 213.514,246.870 213.736 C 246.769 213.957,246.544 214.183,246.370 214.238 C 246.196 214.294,245.954 214.524,245.833 214.750 C 245.712 214.976,245.475 215.205,245.307 215.258 C 245.138 215.312,245.000 215.468,245.000 215.604 C 245.000 215.741,244.925 215.807,244.833 215.750 C 244.742 215.693,244.667 215.764,244.667 215.907 C 244.667 216.050,244.552 216.167,244.411 216.167 C 244.271 216.167,244.102 216.312,244.036 216.490 C 243.970 216.668,243.842 216.825,243.750 216.840 C 243.658 216.855,243.602 216.934,243.625 217.017 C 243.648 217.099,243.568 217.167,243.447 217.167 C 243.326 217.167,243.064 217.354,242.864 217.583 C 242.665 217.813,242.545 218.000,242.596 218.000 C 242.648 218.000,242.578 218.112,242.440 218.250 C 242.303 218.387,242.144 218.500,242.088 218.500 C 242.032 218.500,241.820 218.661,241.618 218.858 C 241.416 219.055,241.362 219.162,241.500 219.095 C 241.637 219.029,241.604 219.093,241.426 219.238 C 241.249 219.382,241.055 219.500,240.996 219.500 C 240.938 219.500,240.790 219.686,240.668 219.914 C 240.546 220.142,240.309 220.372,240.140 220.425 C 239.971 220.479,239.833 220.634,239.833 220.771 C 239.833 220.908,239.758 220.973,239.667 220.917 C 239.575 220.860,239.500 220.931,239.500 221.073 C 239.500 221.216,239.385 221.333,239.245 221.333 C 239.104 221.333,238.932 221.489,238.861 221.679 C 238.791 221.869,238.662 222.027,238.575 222.029 C 238.488 222.031,238.435 222.101,238.458 222.183 C 238.481 222.266,238.406 222.333,238.291 222.333 C 238.040 222.333,237.167 223.228,237.167 223.485 C 237.167 223.585,237.089 223.667,236.993 223.667 C 236.898 223.667,236.654 223.828,236.451 224.025 C 236.249 224.221,236.196 224.328,236.333 224.262 C 236.471 224.196,236.438 224.260,236.260 224.404 C 236.082 224.549,235.888 224.667,235.830 224.667 C 235.771 224.667,235.623 224.853,235.501 225.081 C 235.380 225.308,235.142 225.538,234.973 225.592 C 234.805 225.645,234.667 225.801,234.667 225.938 C 234.667 226.074,234.592 226.140,234.500 226.083 C 234.408 226.027,234.333 226.097,234.333 226.240 C 234.333 226.383,234.218 226.500,234.078 226.500 C 233.938 226.500,233.765 226.656,233.695 226.846 C 233.624 227.036,233.496 227.193,233.408 227.196 C 233.321 227.198,233.269 227.268,233.292 227.350 C 233.315 227.433,233.239 227.500,233.124 227.500 C 232.874 227.500,232.000 228.395,232.000 228.652 C 232.000 228.752,231.922 228.833,231.826 228.833 C 231.731 228.833,231.487 228.994,231.285 229.191 C 231.082 229.388,231.029 229.495,231.167 229.429 C 231.304 229.363,231.271 229.427,231.093 229.571 C 230.915 229.715,230.722 229.833,230.663 229.833 C 230.604 229.833,230.457 230.020,230.335 230.247 C 230.213 230.475,229.975 230.705,229.807 230.758 C 229.638 230.812,229.500 230.968,229.500 231.104 C 229.500 231.241,229.425 231.307,229.333 231.250 C 229.242 231.193,229.167 231.264,229.167 231.407 C 229.167 231.550,229.052 231.667,228.911 231.667 C 228.771 231.667,228.588 231.835,228.505 232.042 C 228.422 232.248,228.350 232.362,228.344 232.294 C 228.327 232.097,226.833 233.590,226.833 233.805 C 226.833 233.912,226.733 234.000,226.610 234.000 C 226.487 234.000,226.301 234.188,226.197 234.417 C 226.093 234.646,225.942 234.833,225.863 234.833 C 225.783 234.833,225.501 235.030,225.234 235.270 C 224.968 235.510,224.844 235.655,224.958 235.593 C 225.073 235.531,225.167 235.524,225.167 235.578 C 225.167 235.631,224.979 235.746,224.750 235.833 C 224.521 235.920,224.332 236.087,224.330 236.204 C 224.329 236.321,224.127 236.604,223.882 236.833 C 223.638 237.063,223.500 237.145,223.578 237.016 C 223.673 236.857,223.656 236.820,223.526 236.901 C 223.420 236.966,223.333 237.132,223.333 237.270 C 223.333 237.407,223.277 237.490,223.208 237.454 C 223.140 237.418,222.708 237.766,222.250 238.226 C 221.792 238.686,221.567 238.955,221.750 238.823 C 222.058 238.602,222.066 238.606,221.855 238.875 C 221.729 239.035,221.535 239.167,221.423 239.167 C 221.311 239.167,221.135 239.354,221.030 239.583 C 220.926 239.813,220.776 240.000,220.696 240.000 C 220.617 240.000,220.334 240.196,220.068 240.436 C 219.801 240.676,219.677 240.822,219.792 240.760 C 219.906 240.698,220.000 240.691,220.000 240.744 C 220.000 240.798,219.813 240.913,219.583 241.000 C 219.354 241.087,219.165 241.254,219.164 241.371 C 219.162 241.488,218.961 241.771,218.716 242.000 C 218.471 242.229,218.334 242.311,218.411 242.183 C 218.506 242.024,218.490 241.987,218.359 242.067 C 218.253 242.133,218.167 242.299,218.167 242.436 C 218.167 242.574,218.105 242.648,218.030 242.602 C 217.848 242.489,217.329 243.104,217.472 243.263 C 217.533 243.331,217.501 243.340,217.401 243.283 C 217.300 243.225,217.000 243.417,216.734 243.708 C 216.468 243.999,216.400 244.128,216.583 243.994 C 216.892 243.768,216.899 243.772,216.688 244.042 C 216.562 244.202,216.368 244.333,216.256 244.333 C 216.145 244.333,215.968 244.521,215.864 244.750 C 215.759 244.979,215.609 245.167,215.529 245.167 C 215.450 245.167,215.167 245.363,214.901 245.603 C 214.635 245.843,214.510 245.988,214.625 245.926 C 214.740 245.864,214.833 245.857,214.833 245.911 C 214.833 245.964,214.646 246.080,214.417 246.167 C 214.188 246.254,214.000 246.444,214.000 246.589 C 214.000 246.734,213.925 246.807,213.833 246.750 C 213.742 246.693,213.667 246.712,213.667 246.792 C 213.667 246.871,213.549 247.082,213.404 247.260 C 213.260 247.438,213.197 247.478,213.263 247.349 C 213.343 247.195,213.319 247.156,213.192 247.234 C 213.087 247.299,213.000 247.466,213.000 247.603 C 213.000 247.741,212.938 247.815,212.863 247.768 C 212.707 247.672,212.157 248.254,212.264 248.403 C 212.302 248.456,212.283 248.462,212.222 248.416 C 212.059 248.294,211.491 248.851,211.600 249.026 C 211.650 249.108,211.592 249.154,211.471 249.129 C 211.349 249.104,211.269 249.177,211.292 249.292 C 211.315 249.406,211.255 249.500,211.160 249.500 C 211.064 249.500,210.820 249.661,210.618 249.858 C 210.416 250.055,210.362 250.164,210.500 250.102 C 210.637 250.039,210.612 250.084,210.444 250.202 C 210.002 250.512,209.212 251.226,209.458 251.093 C 209.573 251.031,209.667 251.024,209.667 251.078 C 209.667 251.131,209.479 251.246,209.250 251.333 C 209.021 251.420,208.833 251.611,208.833 251.756 C 208.833 251.901,208.758 251.973,208.667 251.917 C 208.575 251.860,208.500 251.879,208.500 251.958 C 208.500 252.038,208.382 252.249,208.238 252.426 C 208.093 252.604,208.030 252.645,208.097 252.516 C 208.177 252.362,208.152 252.323,208.026 252.401 C 207.920 252.466,207.833 252.632,207.833 252.770 C 207.833 252.907,207.772 252.982,207.696 252.935 C 207.540 252.839,206.991 253.420,207.097 253.569 C 207.135 253.623,207.117 253.629,207.055 253.583 C 206.893 253.461,206.325 254.018,206.433 254.193 C 206.483 254.275,206.425 254.321,206.304 254.296 C 206.183 254.271,206.102 254.344,206.125 254.458 C 206.148 254.573,206.089 254.667,205.993 254.667 C 205.898 254.667,205.654 254.828,205.451 255.025 C 205.249 255.221,205.196 255.331,205.333 255.268 C 205.471 255.206,205.446 255.251,205.278 255.369 C 204.836 255.679,204.045 256.393,204.292 256.260 C 204.406 256.198,204.500 256.191,204.500 256.244 C 204.500 256.298,204.313 256.413,204.083 256.500 C 203.854 256.587,203.667 256.777,203.667 256.922 C 203.667 257.068,203.592 257.140,203.500 257.083 C 203.408 257.027,203.333 257.045,203.333 257.125 C 203.333 257.205,203.215 257.415,203.071 257.593 C 202.927 257.771,202.863 257.811,202.930 257.683 C 203.010 257.529,202.986 257.489,202.859 257.567 C 202.753 257.633,202.667 257.799,202.667 257.936 C 202.667 258.074,202.605 258.148,202.530 258.102 C 202.374 258.005,201.824 258.587,201.930 258.736 C 201.969 258.789,201.950 258.796,201.889 258.750 C 201.726 258.628,201.158 259.184,201.266 259.360 C 201.317 259.441,201.259 259.488,201.137 259.462 C 201.015 259.437,200.941 259.528,200.972 259.667 C 201.003 259.804,200.972 259.861,200.904 259.793 C 200.836 259.725,200.677 259.755,200.551 259.860 C 200.298 260.070,200.070 259.889,198.360 258.125 C 197.849 257.598,197.334 257.167,197.215 257.167 C 197.097 257.167,197.019 257.103,197.042 257.025 C 197.101 256.824,192.295 252.005,192.032 252.002 C 191.912 252.001,191.850 251.941,191.894 251.870 C 192.002 251.695,188.117 247.833,187.834 247.833 C 187.711 247.833,187.662 247.783,187.724 247.721 C 187.874 247.571,187.171 246.833,186.878 246.833 C 186.751 246.833,186.686 246.770,186.733 246.693 C 186.834 246.531,185.339 245.063,185.136 245.125 C 185.061 245.148,185.000 245.089,185.000 244.995 C 185.000 244.740,182.921 242.667,182.665 242.667 C 182.544 242.667,182.495 242.616,182.557 242.554 C 182.707 242.404,182.004 241.667,181.711 241.667 C 181.584 241.667,181.519 241.604,181.567 241.527 C 181.667 241.364,180.173 239.896,179.970 239.958 C 179.895 239.981,179.833 239.923,179.833 239.829 C 179.833 239.573,177.754 237.500,177.498 237.500 C 177.377 237.500,177.328 237.449,177.390 237.387 C 177.538 237.240,176.840 236.500,176.554 236.500 C 176.433 236.500,176.352 236.436,176.375 236.358 C 176.433 236.161,171.500 231.239,171.302 231.296 C 171.214 231.321,171.180 231.280,171.226 231.205 C 171.336 231.028,167.452 227.167,167.164 227.167 C 167.043 227.167,166.995 227.116,167.057 227.054 C 167.212 226.899,166.500 226.167,166.193 226.167 C 166.056 226.167,165.995 226.116,166.058 226.053 C 166.209 225.902,165.323 224.987,165.137 225.102 C 165.057 225.151,165.012 225.123,165.038 225.039 C 165.099 224.835,161.307 221.004,161.042 221.002 C 160.927 221.001,160.852 220.935,160.875 220.856 C 160.936 220.644,156.125 215.841,155.847 215.837 C 155.717 215.835,155.660 215.784,155.721 215.724 C 155.889 215.555,155.488 215.156,155.273 215.279 C 155.169 215.338,155.139 215.325,155.207 215.250 C 155.364 215.077,155.012 214.639,154.814 214.762 C 154.733 214.812,154.666 214.755,154.664 214.635 C 154.661 214.347,151.956 211.667,151.668 211.667 C 151.545 211.667,151.494 211.617,151.554 211.557 C 151.718 211.394,151.323 210.986,151.122 211.111 C 151.021 211.173,150.998 211.137,151.068 211.024 C 151.140 210.908,151.034 210.769,150.802 210.676 C 150.590 210.591,150.482 210.516,150.562 210.511 C 150.642 210.505,150.615 210.388,150.502 210.252 C 150.388 210.115,150.210 210.052,150.106 210.112 C 150.002 210.171,149.972 210.159,150.040 210.084 C 150.197 209.910,149.846 209.473,149.648 209.595 C 149.567 209.645,149.500 209.597,149.500 209.488 C 149.500 209.219,146.764 206.500,146.494 206.500 C 146.375 206.500,146.327 206.451,146.387 206.390 C 146.551 206.227,146.157 205.820,145.955 205.944 C 145.854 206.007,145.832 205.971,145.902 205.858 C 145.974 205.741,145.868 205.602,145.636 205.509 C 145.424 205.424,145.320 205.350,145.406 205.344 C 145.492 205.338,145.349 205.111,145.089 204.839 C 144.829 204.568,144.552 204.384,144.474 204.432 C 144.397 204.480,144.333 204.433,144.333 204.327 C 144.333 204.048,141.627 201.336,141.347 201.335 C 141.217 201.334,141.162 201.283,141.224 201.221 C 141.379 201.065,140.666 200.333,140.360 200.333 C 140.223 200.333,140.163 200.282,140.226 200.218 C 140.377 200.067,138.821 198.488,138.635 198.603 C 138.556 198.652,138.512 198.625,138.538 198.543 C 138.604 198.327,136.464 196.167,136.183 196.167 C 136.052 196.167,135.995 196.116,136.057 196.054 C 136.212 195.899,135.500 195.167,135.193 195.167 C 135.056 195.167,134.995 195.116,135.058 195.053 C 135.209 194.902,134.323 193.987,134.137 194.102 C 134.057 194.151,134.012 194.124,134.038 194.042 C 134.100 193.838,131.257 191.000,130.990 191.000 C 130.873 191.000,130.828 190.949,130.890 190.887 C 131.041 190.737,130.338 190.000,130.044 190.000 C 129.918 190.000,129.853 189.936,129.901 189.859 C 130.021 189.665,129.091 188.798,128.933 188.956 C 128.863 189.026,128.831 189.003,128.861 188.904 C 128.930 188.680,126.114 185.833,125.824 185.833 C 125.707 185.833,125.662 185.783,125.724 185.721 C 125.874 185.571,125.171 184.833,124.878 184.833 C 124.751 184.833,124.686 184.770,124.733 184.693 C 124.834 184.531,123.339 183.063,123.136 183.125 C 123.061 183.148,123.019 183.106,123.042 183.031 C 123.103 182.831,120.960 180.667,120.701 180.667 C 120.580 180.667,120.518 180.606,120.564 180.531 C 120.682 180.341,118.689 178.467,118.496 178.586 C 118.408 178.640,118.374 178.586,118.418 178.467 C 118.522 178.191,114.580 174.265,114.344 174.410 C 114.243 174.473,114.209 174.418,114.262 174.279 C 114.364 174.014,113.550 173.283,113.316 173.428 C 113.236 173.477,113.207 173.420,113.252 173.300 C 113.355 173.024,109.413 169.098,109.178 169.243 C 109.076 169.306,109.042 169.251,109.095 169.112 C 109.197 168.847,108.384 168.116,108.149 168.261 C 108.069 168.310,108.040 168.253,108.085 168.134 C 108.189 167.857,104.246 163.931,104.011 164.077 C 103.909 164.139,103.875 164.085,103.929 163.945 C 104.030 163.681,103.217 162.949,102.982 163.094 C 102.902 163.144,102.875 163.086,102.921 162.967 C 103.011 162.732,100.870 160.553,100.624 160.629 C 100.542 160.654,100.517 160.607,100.569 160.523 C 100.684 160.337,100.262 159.960,100.110 160.113 C 100.049 160.173,100.000 160.111,100.000 159.976 C 100.000 159.669,99.102 158.787,98.947 158.942 C 98.884 159.005,98.833 158.955,98.833 158.832 C 98.833 158.545,95.154 154.840,94.865 154.836 C 94.745 154.835,94.686 154.770,94.734 154.692 C 94.848 154.509,93.929 153.626,93.780 153.775 C 93.718 153.838,93.667 153.788,93.667 153.666 C 93.667 153.367,89.982 149.673,89.681 149.670 C 89.551 149.668,89.495 149.616,89.557 149.554 C 89.726 149.385,88.986 148.667,88.643 148.667 C 88.474 148.667,88.377 148.576,88.421 148.458 C 88.530 148.163,83.565 143.274,83.314 143.429 C 83.184 143.509,83.159 143.480,83.242 143.347 C 83.389 143.108,82.690 142.289,82.425 142.390 C 82.203 142.475,82.125 141.545,82.343 141.411 C 82.432 141.355,82.463 141.241,82.411 141.157 C 82.359 141.073,82.414 141.033,82.533 141.068 C 82.652 141.103,109.150 114.713,141.417 82.422 C 173.683 50.132,200.196 23.702,200.334 23.690 C 200.471 23.677,211.679 34.762,225.240 48.324 " stroke="none" fill="#34436b" fill-rule="evenodd"></path><path id="path3" d="M202.417 25.667 C 203.514 26.767,204.449 27.667,204.495 27.667 C 204.541 27.667,203.680 26.767,202.583 25.667 C 201.486 24.567,200.551 23.667,200.505 23.667 C 200.459 23.667,201.320 24.567,202.417 25.667 M207.583 30.833 C 208.680 31.933,209.616 32.833,209.661 32.833 C 209.707 32.833,208.847 31.933,207.750 30.833 C 206.653 29.733,205.718 28.833,205.672 28.833 C 205.626 28.833,206.486 29.733,207.583 30.833 M212.250 35.500 C 213.623 36.875,214.783 38.000,214.829 38.000 C 214.875 38.000,213.789 36.875,212.417 35.500 C 211.044 34.125,209.883 33.000,209.838 33.000 C 209.792 33.000,210.877 34.125,212.250 35.500 M217.417 40.667 C 218.789 42.042,219.950 43.167,219.996 43.167 C 220.042 43.167,218.956 42.042,217.583 40.667 C 216.211 39.292,215.050 38.167,215.004 38.167 C 214.958 38.167,216.044 39.292,217.417 40.667 M221.417 44.667 C 222.146 45.400,222.780 46.000,222.826 46.000 C 222.871 46.000,222.312 45.400,221.583 44.667 C 220.854 43.933,220.220 43.333,220.174 43.333 C 220.129 43.333,220.688 43.933,221.417 44.667 M224.000 47.250 C 224.591 47.846,225.111 48.333,225.157 48.333 C 225.203 48.333,224.757 47.846,224.167 47.250 C 223.576 46.654,223.055 46.167,223.010 46.167 C 222.964 46.167,223.409 46.654,224.000 47.250 M226.583 49.833 C 227.312 50.567,227.946 51.167,227.992 51.167 C 228.038 51.167,227.479 50.567,226.750 49.833 C 226.021 49.100,225.387 48.500,225.341 48.500 C 225.295 48.500,225.854 49.100,226.583 49.833 M229.167 52.417 C 229.757 53.012,230.278 53.500,230.324 53.500 C 230.370 53.500,229.924 53.012,229.333 52.417 C 228.743 51.821,228.222 51.333,228.176 51.333 C 228.130 51.333,228.576 51.821,229.167 52.417 M232.250 55.500 C 232.701 55.958,233.108 56.333,233.154 56.333 C 233.200 56.333,232.868 55.958,232.417 55.500 C 231.965 55.042,231.558 54.667,231.513 54.667 C 231.467 54.667,231.799 55.042,232.250 55.500 M234.333 57.583 C 234.924 58.179,235.445 58.667,235.490 58.667 C 235.536 58.667,235.091 58.179,234.500 57.583 C 233.909 56.987,233.389 56.500,233.343 56.500 C 233.297 56.500,233.743 56.987,234.333 57.583 M236.667 59.885 C 236.667 59.914,236.910 60.158,237.208 60.427 L 237.750 60.917 237.260 60.375 C 236.804 59.870,236.667 59.757,236.667 59.885 M239.500 62.750 C 240.091 63.346,240.611 63.833,240.657 63.833 C 240.703 63.833,240.257 63.346,239.667 62.750 C 239.076 62.154,238.555 61.667,238.510 61.667 C 238.464 61.667,238.909 62.154,239.500 62.750 M244.917 68.167 C 245.368 68.625,245.775 69.000,245.821 69.000 C 245.867 69.000,245.535 68.625,245.083 68.167 C 244.632 67.708,244.225 67.333,244.179 67.333 C 244.133 67.333,244.465 67.708,244.917 68.167 M250.333 73.583 C 250.644 73.904,250.936 74.167,250.982 74.167 C 251.028 74.167,250.811 73.904,250.500 73.583 C 250.189 73.262,249.897 73.000,249.851 73.000 C 249.805 73.000,250.022 73.262,250.333 73.583 M252.167 75.385 C 252.167 75.414,252.410 75.658,252.708 75.927 L 253.250 76.417 252.760 75.875 C 252.304 75.370,252.167 75.257,252.167 75.385 M255.500 78.750 C 255.811 79.071,256.103 79.333,256.149 79.333 C 256.195 79.333,255.978 79.071,255.667 78.750 C 255.356 78.429,255.064 78.167,255.018 78.167 C 254.972 78.167,255.189 78.429,255.500 78.750 M257.333 80.552 C 257.333 80.581,257.577 80.825,257.875 81.094 L 258.417 81.583 257.927 81.042 C 257.471 80.537,257.333 80.423,257.333 80.552 M260.667 83.917 C 260.978 84.237,261.270 84.500,261.315 84.500 C 261.361 84.500,261.144 84.237,260.833 83.917 C 260.522 83.596,260.230 83.333,260.185 83.333 C 260.139 83.333,260.356 83.596,260.667 83.917 M265.833 89.083 C 266.144 89.404,266.436 89.667,266.482 89.667 C 266.528 89.667,266.311 89.404,266.000 89.083 C 265.689 88.763,265.397 88.500,265.351 88.500 C 265.305 88.500,265.522 88.763,265.833 89.083 M271.000 94.250 C 271.311 94.571,271.603 94.833,271.649 94.833 C 271.695 94.833,271.478 94.571,271.167 94.250 C 270.856 93.929,270.564 93.667,270.518 93.667 C 270.472 93.667,270.689 93.929,271.000 94.250 M317.658 142.792 L 317.083 143.417 317.708 142.842 C 318.290 142.308,318.410 142.167,318.283 142.167 C 318.255 142.167,317.974 142.448,317.658 142.792 M83.161 142.909 C 83.271 143.043,83.306 143.242,83.239 143.352 C 83.160 143.480,83.186 143.508,83.312 143.430 C 83.427 143.359,83.738 143.538,84.066 143.866 C 84.372 144.172,84.764 144.530,84.936 144.660 C 85.109 144.791,84.765 144.396,84.171 143.782 C 83.184 142.761,82.667 142.314,83.161 142.909 M86.899 146.649 C 87.839 147.593,88.493 148.377,88.428 148.482 C 88.360 148.592,88.441 148.667,88.628 148.667 C 88.935 148.667,89.740 149.371,89.597 149.514 C 89.557 149.554,89.725 149.681,89.970 149.797 C 90.216 149.912,89.293 148.880,87.919 147.503 C 86.545 146.126,85.384 145.000,85.339 145.000 C 85.293 145.000,85.995 145.742,86.899 146.649 M92.045 151.795 C 92.937 152.690,93.667 153.519,93.667 153.638 C 93.667 153.756,93.730 153.814,93.808 153.766 C 93.960 153.672,94.887 154.558,94.764 154.680 C 94.724 154.720,94.892 154.848,95.137 154.963 C 95.383 155.079,94.459 154.047,93.085 152.670 C 91.712 151.293,90.550 150.167,90.505 150.167 C 90.460 150.167,91.153 150.899,92.045 151.795 M97.211 156.961 C 98.103 157.857,98.833 158.686,98.833 158.804 C 98.833 158.923,98.901 158.978,98.983 158.927 C 99.066 158.876,99.354 159.078,99.623 159.376 C 99.893 159.673,100.407 160.178,100.765 160.496 C 101.123 160.815,100.142 159.784,98.585 158.205 C 97.028 156.625,95.717 155.333,95.672 155.333 C 95.627 155.333,96.319 156.066,97.211 156.961 M301.247 159.208 L 299.750 160.750 301.292 159.253 C 302.140 158.430,302.833 157.737,302.833 157.712 C 302.833 157.591,302.636 157.776,301.247 159.208 M103.837 163.583 C 105.247 165.080,107.000 166.779,107.000 166.648 C 107.000 166.610,105.971 165.567,104.712 164.331 C 103.272 162.915,102.948 162.639,103.837 163.583 M295.995 164.458 L 294.917 165.583 296.042 164.505 C 297.087 163.503,297.243 163.333,297.120 163.333 C 297.095 163.333,296.588 163.840,295.995 164.458 M109.004 168.750 C 110.414 170.247,112.167 171.945,112.167 171.814 C 112.167 171.776,111.137 170.734,109.879 169.498 C 108.438 168.082,108.114 167.805,109.004 168.750 M290.829 169.625 L 289.750 170.750 290.875 169.671 C 291.920 168.670,292.076 168.500,291.954 168.500 C 291.928 168.500,291.422 169.006,290.829 169.625 M113.920 173.674 C 114.835 174.595,116.724 176.483,118.118 177.868 C 119.512 179.254,120.624 180.434,120.590 180.489 C 120.556 180.544,120.728 180.683,120.973 180.797 C 121.217 180.912,119.392 178.980,116.918 176.503 C 114.443 174.026,112.382 172.000,112.338 172.000 C 112.293 172.000,113.005 172.753,113.920 173.674 M286.410 174.042 L 285.583 174.917 286.458 174.090 C 286.940 173.635,287.333 173.241,287.333 173.215 C 287.333 173.090,287.179 173.229,286.410 174.042 M281.497 178.958 L 279.917 180.583 281.542 179.003 C 283.051 177.536,283.242 177.333,283.122 177.333 C 283.097 177.333,282.366 178.065,281.497 178.958 M121.586 181.338 C 121.645 181.433,122.019 181.823,122.419 182.205 C 122.818 182.587,123.107 182.962,123.060 183.037 C 123.013 183.113,123.042 183.154,123.124 183.129 C 123.335 183.064,124.838 184.524,124.733 184.693 C 124.686 184.770,124.751 184.833,124.878 184.833 C 125.193 184.833,125.867 185.574,125.710 185.747 C 125.640 185.824,125.661 185.843,125.756 185.789 C 125.980 185.662,129.043 188.731,128.876 188.914 C 128.807 188.991,128.832 189.007,128.933 188.949 C 129.147 188.827,130.059 189.719,129.891 189.887 C 129.829 189.949,129.890 190.000,130.027 190.000 C 130.333 190.000,131.046 190.732,130.890 190.887 C 130.828 190.949,130.878 191.000,131.001 191.000 C 131.322 191.000,134.162 193.870,134.045 194.077 C 133.991 194.172,134.010 194.193,134.087 194.123 C 134.257 193.968,135.190 194.827,135.068 195.026 C 135.020 195.103,135.084 195.167,135.211 195.167 C 135.504 195.167,136.207 195.904,136.057 196.054 C 135.995 196.116,136.052 196.167,136.183 196.167 C 136.464 196.167,138.604 198.327,138.538 198.543 C 138.512 198.625,138.556 198.652,138.635 198.603 C 138.837 198.478,140.369 200.073,140.212 200.245 C 140.141 200.323,140.166 200.340,140.266 200.283 C 140.496 200.152,141.383 201.057,141.211 201.247 C 141.141 201.324,141.170 201.337,141.275 201.277 C 141.380 201.217,141.685 201.411,141.952 201.709 C 142.219 202.006,142.621 202.396,142.844 202.575 C 143.067 202.754,138.375 198.010,132.417 192.034 C 122.140 181.724,121.331 180.926,121.586 181.338 M275.829 184.625 L 274.750 185.750 275.875 184.671 C 276.920 183.670,277.076 183.500,276.954 183.500 C 276.928 183.500,276.422 184.006,275.829 184.625 M271.158 189.292 L 270.583 189.917 271.208 189.342 C 271.552 189.026,271.833 188.745,271.833 188.717 C 271.833 188.590,271.692 188.710,271.158 189.292 M260.824 199.625 L 260.250 200.250 260.875 199.676 C 261.457 199.141,261.577 199.000,261.449 199.000 C 261.422 199.000,261.140 199.281,260.824 199.625 M143.333 203.053 C 143.333 203.127,143.558 203.378,143.833 203.609 C 144.108 203.840,144.333 204.140,144.333 204.275 C 144.333 204.409,144.397 204.480,144.474 204.432 C 144.552 204.384,144.829 204.568,145.089 204.839 C 145.349 205.111,145.492 205.338,145.406 205.344 C 145.320 205.350,145.424 205.424,145.636 205.509 C 145.868 205.602,145.974 205.741,145.902 205.858 C 145.832 205.971,145.854 206.007,145.955 205.944 C 146.157 205.820,146.551 206.227,146.387 206.390 C 146.327 206.451,146.384 206.501,146.514 206.502 C 146.804 206.505,149.500 209.194,149.500 209.481 C 149.500 209.594,149.567 209.645,149.648 209.595 C 149.846 209.473,150.197 209.910,150.040 210.084 C 149.972 210.159,150.002 210.171,150.106 210.112 C 150.210 210.052,150.388 210.115,150.502 210.252 C 150.615 210.388,150.642 210.505,150.562 210.511 C 150.482 210.516,150.590 210.591,150.802 210.676 C 151.034 210.769,151.140 210.908,151.068 211.024 C 150.998 211.137,151.021 211.173,151.122 211.111 C 151.323 210.986,151.718 211.394,151.554 211.557 C 151.494 211.617,151.551 211.668,151.681 211.669 C 151.970 211.672,154.667 214.361,154.667 214.647 C 154.667 214.760,154.733 214.812,154.814 214.762 C 155.012 214.639,155.364 215.077,155.207 215.250 C 155.139 215.325,155.169 215.338,155.273 215.279 C 155.488 215.156,155.889 215.555,155.721 215.724 C 155.660 215.784,155.717 215.834,155.847 215.834 C 156.173 215.835,161.030 220.745,160.875 220.916 C 160.806 220.991,160.829 221.008,160.927 220.953 C 161.152 220.825,165.210 224.897,165.042 225.082 C 164.973 225.158,164.999 225.173,165.099 225.116 C 165.314 224.994,166.225 225.886,166.058 226.053 C 165.995 226.116,166.056 226.167,166.193 226.167 C 166.500 226.167,167.212 226.899,167.057 227.054 C 166.995 227.116,167.044 227.167,167.166 227.167 C 167.480 227.167,171.335 231.029,171.215 231.223 C 171.160 231.312,171.187 231.340,171.275 231.286 C 171.485 231.156,176.537 236.237,176.375 236.416 C 176.306 236.491,176.332 236.507,176.433 236.449 C 176.663 236.318,177.550 237.223,177.377 237.413 C 177.307 237.490,177.332 237.507,177.432 237.450 C 177.653 237.324,180.045 239.732,179.872 239.906 C 179.805 239.973,179.830 240.003,179.928 239.972 C 180.179 239.894,181.675 241.351,181.551 241.552 C 181.495 241.644,181.524 241.672,181.615 241.615 C 181.832 241.481,182.712 242.396,182.544 242.580 C 182.474 242.657,182.499 242.673,182.599 242.616 C 182.819 242.491,185.212 244.899,185.039 245.072 C 184.972 245.139,184.997 245.169,185.095 245.139 C 185.345 245.061,186.842 246.518,186.718 246.719 C 186.661 246.810,186.690 246.838,186.782 246.782 C 186.998 246.648,187.878 247.562,187.711 247.747 C 187.641 247.824,187.664 247.841,187.762 247.785 C 187.990 247.656,192.047 251.726,191.877 251.914 C 191.807 251.991,191.830 252.008,191.927 251.953 C 192.025 251.897,192.803 252.563,193.657 253.433 C 194.510 254.302,195.233 254.989,195.264 254.958 C 195.295 254.928,183.623 243.206,169.326 228.910 C 155.030 214.614,143.333 202.978,143.333 203.053 M255.658 204.792 L 255.083 205.417 255.708 204.842 C 256.052 204.526,256.333 204.245,256.333 204.217 C 256.333 204.090,256.192 204.210,255.658 204.792 M250.491 209.958 L 249.917 210.583 250.542 210.009 C 250.885 209.693,251.167 209.412,251.167 209.384 C 251.167 209.257,251.026 209.377,250.491 209.958 M195.766 255.531 C 195.940 255.731,196.327 256.114,196.624 256.381 C 196.922 256.648,197.117 256.946,197.057 257.043 C 196.997 257.139,197.023 257.172,197.114 257.116 C 197.205 257.060,197.740 257.493,198.303 258.078 C 198.867 258.664,199.422 259.196,199.539 259.260 C 199.655 259.325,198.814 258.430,197.669 257.272 C 195.763 255.343,194.970 254.618,195.766 255.531 " stroke="none" fill="#3d4c67" fill-rule="evenodd"></path><path id="path4" d="M99.958 16.958 C 154.981 16.981,245.019 16.981,300.042 16.958 C 355.065 16.935,310.046 16.916,200.000 16.916 C 89.954 16.916,44.935 16.935,99.958 16.958 " stroke="none" fill="#443c63" fill-rule="evenodd"></path><path id="path5" d="M182.000 41.958 L 163.750 60.250 182.077 42.000 C 192.156 31.962,200.437 23.731,200.479 23.708 C 200.521 23.685,200.487 23.667,200.402 23.667 C 200.318 23.667,192.037 31.898,182.000 41.958 M122.833 101.125 L 82.083 141.917 122.875 101.167 C 145.310 78.754,163.667 60.398,163.667 60.375 C 163.667 60.259,160.721 63.199,122.833 101.125 M273.910 186.375 L 273.083 187.250 273.958 186.423 C 274.440 185.968,274.833 185.574,274.833 185.548 C 274.833 185.424,274.679 185.562,273.910 186.375 M271.077 189.208 L 270.250 190.083 271.125 189.256 C 271.606 188.801,272.000 188.408,272.000 188.381 C 272.000 188.257,271.846 188.395,271.077 189.208 M268.744 191.542 L 267.917 192.417 268.792 191.590 C 269.273 191.135,269.667 190.741,269.667 190.715 C 269.667 190.590,269.512 190.729,268.744 191.542 M265.910 194.375 L 265.083 195.250 265.958 194.423 C 266.440 193.968,266.833 193.574,266.833 193.548 C 266.833 193.424,266.679 193.562,265.910 194.375 M263.577 196.708 L 262.750 197.583 263.625 196.756 C 264.106 196.301,264.500 195.908,264.500 195.881 C 264.500 195.757,264.346 195.895,263.577 196.708 M231.416 228.875 L 200.250 260.083 231.458 228.917 C 248.623 211.775,262.667 197.732,262.667 197.709 C 262.667 197.592,260.393 199.860,231.416 228.875 M99.958 266.458 C 154.981 266.481,245.019 266.481,300.042 266.458 C 355.065 266.435,310.046 266.416,200.000 266.416 C 89.954 266.416,44.935 266.435,99.958 266.458 " stroke="none" fill="#3c447c" fill-rule="evenodd"></path></g></svg>